<svg xmlns="http://www.w3.org/2000/svg" width="24" height="24" fill="none" viewBox="0 0 24 24"><path fill="#A0A4AB" d="M10 2.25C8.48122 2.25 7.25 3.48122 7.25 5V6H8.75V5C8.75 4.30964 9.30964 3.75 10 3.75H19C19.6904 3.75 20.25 4.30964 20.25 5V14C20.25 14.6904 19.6904 15.25 19 15.25H18V16.75H19C20.5188 16.75 21.75 15.5188 21.75 14V5C21.75 3.48122 20.5188 2.25 19 2.25H10Z"/><path fill="#A0A4AB" fill-rule="evenodd" d="M2.25 10C2.25 8.48122 3.48122 7.25 5 7.25H14C15.5188 7.25 16.75 8.48122 16.75 10V19C16.75 20.5188 15.5188 21.75 14 21.75H5C3.48122 21.75 2.25 20.5188 2.25 19V10ZM5 8.75C4.30964 8.75 3.75 9.30964 3.75 10V19C3.75 19.6904 4.30964 20.25 5 20.25H14C14.6904 20.25 15.25 19.6904 15.25 19V10C15.25 9.30964 14.6904 8.75 14 8.75H5Z" clip-rule="evenodd"/></svg>